<?xml version="1.0" encoding="UTF-8" standalone="no"?>
<!-- Created with Inkscape (http://www.inkscape.org/) -->

<svg
   xmlns:dc="http://purl.org/dc/elements/1.1/"
   xmlns:cc="http://creativecommons.org/ns#"
   xmlns:rdf="http://www.w3.org/1999/02/22-rdf-syntax-ns#"
   xmlns:svg="http://www.w3.org/2000/svg"
   xmlns="http://www.w3.org/2000/svg"
   xmlns:xlink="http://www.w3.org/1999/xlink"
   xmlns:sodipodi="http://sodipodi.sourceforge.net/DTD/sodipodi-0.dtd"
   xmlns:inkscape="http://www.inkscape.org/namespaces/inkscape"
   width="353.78738"
   height="351.08417"
   id="svg2"
   version="1.1"
   inkscape:version="0.47pre4 r22446"
   sodipodi:docname="system_geometry.svg"
   inkscape:export-filename="/home/chopard/dvlpt/vplants/mechanics/doc/user/membrane/sphere aniso/system_geometry.png"
   inkscape:export-xdpi="90"
   inkscape:export-ydpi="90">
  <defs
     id="defs4">
    <marker
       inkscape:stockid="Arrow1Mend"
       orient="auto"
       refY="0"
       refX="0"
       id="Arrow1Mend"
       style="overflow:visible">
      <path
         id="path3637"
         d="M 0,0 5,-5 -12.5,0 5,5 0,0 z"
         style="fill:#00ff00;fill-rule:evenodd;stroke:#00ff00;stroke-width:1pt;marker-start:none"
         transform="matrix(-0.4,0,0,-0.4,-4,0)" />
    </marker>
    <linearGradient
       id="linearGradient3615">
      <stop
         style="stop-color:#ffffff;stop-opacity:1;"
         offset="0"
         id="stop3617" />
      <stop
         style="stop-color:#c8c8c8;stop-opacity:0;"
         offset="1"
         id="stop3619" />
    </linearGradient>
    <inkscape:perspective
       sodipodi:type="inkscape:persp3d"
       inkscape:vp_x="0 : 526.18109 : 1"
       inkscape:vp_y="0 : 1000 : 0"
       inkscape:vp_z="744.09448 : 526.18109 : 1"
       inkscape:persp3d-origin="372.04724 : 350.78739 : 1"
       id="perspective10" />
    <radialGradient
       inkscape:collect="always"
       xlink:href="#linearGradient3615"
       id="radialGradient3621"
       cx="432.15561"
       cy="332.70557"
       fx="432.15561"
       fy="332.70557"
       r="43.999107"
       gradientTransform="matrix(1,0,0,1.1780822,0,-59.248932)"
       gradientUnits="userSpaceOnUse" />
    <inkscape:perspective
       id="perspective4081"
       inkscape:persp3d-origin="0.5 : 0.33333333 : 1"
       inkscape:vp_z="1 : 0.5 : 1"
       inkscape:vp_y="0 : 1000 : 0"
       inkscape:vp_x="0 : 0.5 : 1"
       sodipodi:type="inkscape:persp3d" />
    <marker
       inkscape:stockid="Arrow1Mend"
       orient="auto"
       refY="0"
       refX="0"
       id="Arrow1Mend-3"
       style="overflow:visible">
      <path
         id="path3637-8"
         d="M 0,0 5,-5 -12.5,0 5,5 0,0 z"
         style="fill:#00ff00;fill-rule:evenodd;stroke:#00ff00;stroke-width:1pt;marker-start:none"
         transform="matrix(-0.4,0,0,-0.4,-4,0)" />
    </marker>
    <inkscape:perspective
       id="perspective4081-1"
       inkscape:persp3d-origin="0.5 : 0.33333333 : 1"
       inkscape:vp_z="1 : 0.5 : 1"
       inkscape:vp_y="0 : 1000 : 0"
       inkscape:vp_x="0 : 0.5 : 1"
       sodipodi:type="inkscape:persp3d" />
    <marker
       inkscape:stockid="Arrow1Mend"
       orient="auto"
       refY="0"
       refX="0"
       id="Arrow1Mend-1"
       style="overflow:visible">
      <path
         id="path3637-9"
         d="M 0,0 5,-5 -12.5,0 5,5 0,0 z"
         style="fill:#00ff00;fill-rule:evenodd;stroke:#00ff00;stroke-width:1pt;marker-start:none"
         transform="matrix(-0.4,0,0,-0.4,-4,0)" />
    </marker>
    <inkscape:perspective
       id="perspective4081-6"
       inkscape:persp3d-origin="0.5 : 0.33333333 : 1"
       inkscape:vp_z="1 : 0.5 : 1"
       inkscape:vp_y="0 : 1000 : 0"
       inkscape:vp_x="0 : 0.5 : 1"
       sodipodi:type="inkscape:persp3d" />
    <marker
       inkscape:stockid="Arrow1Mend"
       orient="auto"
       refY="0"
       refX="0"
       id="Arrow1Mend-31"
       style="overflow:visible">
      <path
         id="path3637-7"
         d="M 0,0 5,-5 -12.5,0 5,5 0,0 z"
         style="fill:#00ff00;fill-rule:evenodd;stroke:#00ff00;stroke-width:1pt;marker-start:none"
         transform="matrix(-0.4,0,0,-0.4,-4,0)" />
    </marker>
  </defs>
  <sodipodi:namedview
     id="base"
     pagecolor="#ffffff"
     bordercolor="#666666"
     borderopacity="1.0"
     inkscape:pageopacity="0.0"
     inkscape:pageshadow="2"
     inkscape:zoom="2.3071391"
     inkscape:cx="176.89369"
     inkscape:cy="175.54208"
     inkscape:document-units="px"
     inkscape:current-layer="layer1"
     showgrid="false"
     inkscape:window-width="1680"
     inkscape:window-height="976"
     inkscape:window-x="0"
     inkscape:window-y="25"
     inkscape:window-maximized="1" />
  <metadata
     id="metadata7">
    <rdf:RDF>
      <cc:Work
         rdf:about="">
        <dc:format>image/svg+xml</dc:format>
        <dc:type
           rdf:resource="http://purl.org/dc/dcmitype/StillImage" />
        <dc:title></dc:title>
      </cc:Work>
    </rdf:RDF>
  </metadata>
  <g
     inkscape:label="Calque 1"
     inkscape:groupmode="layer"
     id="layer1"
     transform="translate(-162.44188,-228.74189)">
    <path
       transform="translate(-100.05276,-77.149118)"
       style="color:#000000;fill:#c8c8c8;fill-opacity:1;stroke:#000000;stroke-width:3;stroke-opacity:1;marker:none;visibility:visible;display:inline;overflow:visible;enable-background:accumulate"
       d="M 376.00436,646.37555 C 310.46383,620.96396 263.99464,557.30106 263.99464,482.7847 c 0,-96.86726 78.52643,-175.39369 175.3937,-175.39369 96.86726,0 175.39369,78.52643 175.39369,175.39369 0,82.95757 -57.59355,152.46344 -134.97736,170.71433"
       id="path3588"
       sodipodi:nodetypes="csscs" />
    <path
       style="color:#000000;fill:#c8c8c8;fill-opacity:1;stroke:#000000;stroke-width:3;stroke-opacity:1;marker:none;visibility:visible;display:inline;overflow:visible;enable-background:accumulate"
       d="m 335.71921,560.92017 c -33.27467,43.39037 -124.76458,-10.19913 -124.76458,-107.06639 0,-96.86726 46.48707,-165.75005 128.38095,-175.39369 34.88112,24.1091 84.98457,78.52643 84.98457,175.39369 0,96.86726 -40.86082,155.67841 -88.60094,107.06639 z"
       id="path3604" />
    <path
       style="color:#000000;fill:#1e1e1e;fill-opacity:1;stroke:#000000;stroke-width:3;stroke-opacity:1;marker:none;visibility:visible;display:inline;overflow:visible;enable-background:accumulate"
       d="m 335.71921,552.65649 c -34.79813,46.24529 -117.87642,-8.16483 -117.87642,-98.80271 0,-90.63788 44.88653,-156.72658 121.49279,-165.75005 32.62896,22.55868 78.09641,75.11217 78.09641,165.75005 0,90.63788 -34.99205,146.98899 -81.71278,98.80271 z"
       id="path3609" />
    <path
       sodipodi:type="arc"
       style="color:#000000;fill:url(#radialGradient3621);fill-opacity:1;stroke:none;stroke-width:3;marker:none;visibility:visible;display:inline;overflow:visible;enable-background:accumulate"
       id="path3613"
       sodipodi:cx="432.15561"
       sodipodi:cy="332.70557"
       sodipodi:rx="43.999107"
       sodipodi:ry="51.834564"
       d="m 476.15472,332.70557 c 0,28.62744 -19.69907,51.83456 -43.99911,51.83456 -24.30004,0 -43.99911,-23.20712 -43.99911,-51.83456 0,-28.62744 19.69907,-51.83457 43.99911,-51.83457 24.30004,0 43.99911,23.20713 43.99911,51.83457 z"
       transform="matrix(0.86723836,-0.49789319,0.93789181,1.633635,-259.48995,-4.0847564)" />
    <path
       style="fill:none;stroke:#00ff00;stroke-width:5;stroke-linecap:butt;stroke-linejoin:miter;stroke-miterlimit:4;stroke-opacity:1;stroke-dasharray:none;marker-end:url(#Arrow1Mend)"
       d="M 334.32747,379.72239 268.82155,334.72554"
       id="path3623"
       sodipodi:nodetypes="cc" />
    <path
       style="fill:none;stroke:#00ff00;stroke-width:5;stroke-linecap:butt;stroke-linejoin:miter;stroke-miterlimit:4;stroke-opacity:1;stroke-dasharray:none;marker-end:url(#Arrow1Mend)"
       d="M 334.32747,414.28556 237.05106,391.40742"
       id="path3623-9"
       sodipodi:nodetypes="cc" />
    <path
       style="fill:none;stroke:#00ff00;stroke-width:5;stroke-linecap:butt;stroke-linejoin:miter;stroke-miterlimit:4;stroke-opacity:1;stroke-dasharray:none;marker-end:url(#Arrow1Mend)"
       d="m 334.32747,447.26254 -104.91742,10.501"
       id="path3623-97"
       sodipodi:nodetypes="cc" />
    <path
       style="fill:none;stroke:#2e2d2d;stroke-width:1px;stroke-linecap:butt;stroke-linejoin:miter;stroke-opacity:1"
       d="m 339.01942,289.0658 -3.61943,263.41366"
       id="path4114" />
    <path
       style="fill:none;stroke:#00ff00;stroke-width:5;stroke-linecap:butt;stroke-linejoin:miter;stroke-miterlimit:4;stroke-opacity:1;stroke-dasharray:none;marker-end:url(#Arrow1Mend)"
       d="m 334.32747,490.29348 -69.92966,49.51034"
       id="path3623-95"
       sodipodi:nodetypes="cc" />
    <path
       sodipodi:nodetypes="cc"
       id="path4129"
       d="m 342.30966,379.32023 34.53973,-34.54074"
       style="fill:none;stroke:#00ff00;stroke-width:5;stroke-linecap:butt;stroke-linejoin:miter;stroke-miterlimit:4;stroke-opacity:1;stroke-dasharray:none;marker-end:url(#Arrow1Mend)" />
    <path
       sodipodi:nodetypes="cc"
       id="path4131"
       d="m 342.30966,413.8834 57.8649,-17.24792"
       style="fill:none;stroke:#00ff00;stroke-width:5;stroke-linecap:butt;stroke-linejoin:miter;stroke-miterlimit:4;stroke-opacity:1;stroke-dasharray:none;marker-end:url(#Arrow1Mend)" />
    <path
       sodipodi:nodetypes="cc"
       id="path4133"
       d="m 342.30966,446.86038 62.69081,6.47942"
       style="fill:none;stroke:#00ff00;stroke-width:5;stroke-linecap:butt;stroke-linejoin:miter;stroke-miterlimit:4;stroke-opacity:1;stroke-dasharray:none;marker-end:url(#Arrow1Mend)" />
    <path
       sodipodi:nodetypes="cc"
       id="path4135"
       d="m 342.30966,489.89132 53.84333,39.85854"
       style="fill:none;stroke:#00ff00;stroke-width:5;stroke-linecap:butt;stroke-linejoin:miter;stroke-miterlimit:4;stroke-opacity:1;stroke-dasharray:none;marker-end:url(#Arrow1Mend)" />
    <g
       id="g3654"
       transform="translate(517.43472,0)">
      <path
         transform="translate(-354.6983,340.84924)"
         style="fill:none;stroke:#000000;stroke-width:3;stroke-linecap:butt;stroke-miterlimit:4;stroke-dashoffset:0;stroke-opacity:1"
         d="M 48.17988,88.358045 C 19.757289,79.133831 1.5440294,66.838124 1.5440294,53.336792 M 351.54592,53.445151 c 0,19.512622 -36.99008,36.398685 -90.52554,45.24245"
         id="path2840"
         sodipodi:nodetypes="cscs" />
      <path
         transform="matrix(0.97511673,0,0,1,-350.30394,312.52105)"
         style="fill:none;stroke:#000000;stroke-width:3.03803635;stroke-linecap:butt;stroke-miterlimit:4;stroke-dashoffset:0;stroke-opacity:1"
         d="M 49.816362,88.881888 C 20.424528,79.601892 2.4109039,67.095342 2.4109039,53.336792 c 0,-2.533234 -0.2783259,-5.024025 0.9015968,-7.460047 M 350.04734,46.609473 c 0.9283,2.167363 0.74006,4.484891 0.74006,6.727319 0,19.67251 -36.82776,36.785381 -91.08651,45.566563"
         id="path3638"
         sodipodi:nodetypes="cssccs" />
      <path
         transform="matrix(0.9153969,0,0,1,-339.75746,284.19285)"
         style="fill:none;stroke:#000000;stroke-width:3.13557029;stroke-linecap:butt;stroke-miterlimit:4;stroke-dashoffset:0;stroke-opacity:1"
         d="M 50.64741,89.142474 C 20.764443,79.836676 2.4109039,67.224547 2.4109039,53.336792 c 0,-3.872206 0.7165865,-7.970321 3.4223295,-11.600171 M 348.41421,43.84531 c 1.86987,3.043192 2.37319,6.287571 2.37319,9.491482 0,19.762076 -37.16387,36.941152 -91.82869,45.685982"
         id="path3640"
         sodipodi:nodetypes="cssccs" />
      <path
         transform="matrix(0.80591053,0,0,1,-320.42226,255.86466)"
         style="fill:none;stroke:#000000;stroke-width:3.34177995;stroke-linecap:butt;stroke-miterlimit:4;stroke-dashoffset:0;stroke-opacity:1"
         d="M 49.673129,88.836611 C 20.366016,79.561232 2.4109039,67.072979 2.4109039,53.336792 c 0,-6.529033 2.7119611,-12.884485 10.1159161,-18.63863 m 329.38034,1.023296 c 6.10419,5.284748 8.88024,11.714136 8.88024,17.615334 0,20.100277 -38.44677,37.52839 -94.65052,46.127511"
         id="path3642"
         sodipodi:nodetypes="cssccs" />
      <path
         transform="matrix(0.51477632,0,0,1,-269.00821,227.53648)"
         style="fill:none;stroke:#000000;stroke-width:4.18130636;stroke-linecap:butt;stroke-miterlimit:4;stroke-dashoffset:0;stroke-opacity:1"
         d="M 32.598095,82.510243 C 13.548626,74.19985 2.4109039,64.155373 2.4109039,53.336792 2.4109039,34.635985 35.690375,18.248203 85.587169,9.1317304 M 265.71227,8.789734 c 50.94955,9.044805 85.07513,25.610016 85.07513,44.547058 0,18.719648 -33.34657,35.121611 -83.32714,44.232597"
         id="path3644"
         sodipodi:nodetypes="cssccs" />
      <path
         transform="translate(-354.6983,369.17742)"
         style="fill:none;stroke:#000000;stroke-width:3;stroke-linecap:butt;stroke-miterlimit:4;stroke-dashoffset:0;stroke-opacity:1"
         d="M 47.613539,88.173359 C 19.527031,78.970018 1.9774667,66.748216 1.9774667,53.336792 m 349.1350133,0 c 0,19.406984 -36.1654,36.32296 -89.22413,45.206457"
         id="path3646"
         sodipodi:nodetypes="cscs" />
      <path
         transform="matrix(0.96765175,0,0,1,-348.98563,397.50561)"
         style="fill:none;stroke:#000000;stroke-width:3.04973221;stroke-linecap:butt;stroke-miterlimit:4;stroke-dashoffset:0;stroke-opacity:1"
         d="M 47.448533,88.119214 C 19.460008,78.922108 3.4187394,66.721932 1.6270318,53.336792 M 351.57127,53.770229 c -2.01567,19.390587 -36.96466,36.049783 -90.43835,44.898765"
         id="path3648"
         sodipodi:nodetypes="cscs" />
      <path
         transform="matrix(0.89797861,0,0,1,-336.68141,425.83379)"
         style="fill:none;stroke:#000000;stroke-width:3.1658349;stroke-linecap:butt;stroke-miterlimit:4;stroke-dashoffset:0;stroke-opacity:1"
         d="M 47.642293,88.182779 C 26.91309,81.393597 11.672616,73.502546 5.3550123,64.160687 M 347.19504,65.225302 C 336.67527,80.146641 304.4704,91.515506 260.96997,98.695925"
         id="path3650"
         sodipodi:nodetypes="cscs" />
      <path
         transform="matrix(0.78351559,0,0,1,-316.46734,454.16198)"
         style="fill:none;stroke:#000000;stroke-width:3.38920188;stroke-linecap:butt;stroke-miterlimit:4;stroke-dashoffset:0;stroke-opacity:1"
         d="M 54.755648,90.379832 C 36.646644,85.104502 22.38994,78.662767 13.358063,71.463061 m 325.498177,0.76572 c -15.05178,11.438912 -43.36921,20.897953 -79.32078,26.701312"
         id="path3652"
         sodipodi:nodetypes="cscs" />
    </g>
  </g>
</svg>
