<?xml version="1.0" encoding="UTF-8" standalone="no"?>
<!-- Created with Inkscape (http://www.inkscape.org/) -->
<svg
   xmlns:dc="http://purl.org/dc/elements/1.1/"
   xmlns:cc="http://creativecommons.org/ns#"
   xmlns:rdf="http://www.w3.org/1999/02/22-rdf-syntax-ns#"
   xmlns:svg="http://www.w3.org/2000/svg"
   xmlns="http://www.w3.org/2000/svg"
   xmlns:sodipodi="http://sodipodi.sourceforge.net/DTD/sodipodi-0.dtd"
   xmlns:inkscape="http://www.inkscape.org/namespaces/inkscape"
   width="210mm"
   height="297mm"
   id="svg2"
   sodipodi:version="0.32"
   inkscape:version="0.46"
   sodipodi:docname="spring.svg"
   inkscape:output_extension="org.inkscape.output.svg.inkscape">
  <defs
     id="defs4">
    <inkscape:perspective
       sodipodi:type="inkscape:persp3d"
       inkscape:vp_x="0 : 526.18109 : 1"
       inkscape:vp_y="0 : 1000 : 0"
       inkscape:vp_z="744.09448 : 526.18109 : 1"
       inkscape:persp3d-origin="372.04724 : 350.78739 : 1"
       id="perspective10" />
  </defs>
  <sodipodi:namedview
     id="base"
     pagecolor="#ffffff"
     bordercolor="#666666"
     borderopacity="1.0"
     inkscape:pageopacity="0.0"
     inkscape:pageshadow="2"
     inkscape:zoom="0.68512534"
     inkscape:cx="535.53955"
     inkscape:cy="526.18109"
     inkscape:document-units="px"
     inkscape:current-layer="layer1"
     showgrid="false"
     inkscape:window-width="1279"
     inkscape:window-height="949"
     inkscape:window-x="0"
     inkscape:window-y="25" />
  <metadata
     id="metadata7">
    <rdf:RDF>
      <cc:Work
         rdf:about="">
        <dc:format>image/svg+xml</dc:format>
        <dc:type
           rdf:resource="http://purl.org/dc/dcmitype/StillImage" />
      </cc:Work>
    </rdf:RDF>
  </metadata>
  <g
     inkscape:label="Calque 1"
     inkscape:groupmode="layer"
     id="layer1">
    <path
       style="fill:none;fill-rule:evenodd;stroke:#2627ff;stroke-width:40;stroke-linecap:butt;stroke-linejoin:miter;stroke-opacity:1;stroke-miterlimit:4;stroke-dasharray:none"
       d="M 83.081225,372.80037 L 636.95606,372.80037"
       id="path2403"
       inkscape:export-filename="/home/chopard/dvlpt/vplants/tissue/simulation/mass spring/description_files/spring_representation.png"
       inkscape:export-xdpi="90"
       inkscape:export-ydpi="90" />
    <path
       id="path2405"
       d="M 83.081225,607.13203 L 636.95606,607.13203"
       style="fill:none;fill-rule:evenodd;stroke:#2627ff;stroke-width:40;stroke-linecap:butt;stroke-linejoin:miter;stroke-opacity:1;stroke-miterlimit:4;stroke-dasharray:none"
       inkscape:export-filename="/home/chopard/dvlpt/vplants/tissue/simulation/mass spring/description_files/spring_representation.png"
       inkscape:export-xdpi="90"
       inkscape:export-ydpi="90" />
    <path
       style="fill:none;fill-rule:evenodd;stroke:#2627ff;stroke-width:40;stroke-linecap:butt;stroke-linejoin:miter;stroke-opacity:1;stroke-miterlimit:4;stroke-dasharray:none"
       d="M 360.01864,380.88719 L 360.01864,593.99575"
       id="path2407"
       sodipodi:nodetypes="cc"
       inkscape:export-filename="/home/chopard/dvlpt/vplants/tissue/simulation/mass spring/description_files/spring_representation.png"
       inkscape:export-xdpi="90"
       inkscape:export-ydpi="90" />
    <path
       style="fill:none;fill-rule:evenodd;stroke:#000000;stroke-width:4;stroke-linecap:butt;stroke-linejoin:miter;stroke-miterlimit:4;stroke-dasharray:none;stroke-opacity:1"
       d="M 347.5363,372.80037 L 314.32088,372.80037 L 301.37205,391.0452 L 275.47438,354.55553 L 249.57672,391.0452 L 223.67906,354.55553 L 197.7814,391.0452 L 171.88373,354.55553 L 145.98607,391.0452 L 120.0884,354.55553 L 107.13957,372.80037 L 83.196455,372.80037"
       id="path3179"
       sodipodi:nodetypes="cccccccccccc"
       inkscape:export-filename="/home/chopard/dvlpt/vplants/tissue/simulation/mass spring/description_files/spring_representation.png"
       inkscape:export-xdpi="90"
       inkscape:export-ydpi="90" />
    <path
       sodipodi:nodetypes="cccccccccccc"
       id="path3181"
       d="M 633.46075,372.80037 L 610.61703,372.80037 L 597.6682,391.0452 L 571.77053,354.55553 L 545.87287,391.0452 L 519.97521,354.55553 L 494.07755,391.0452 L 468.17988,354.55553 L 442.28222,391.0452 L 416.38455,354.55553 L 403.43572,372.80037 L 372.82508,372.80037"
       style="fill:none;fill-rule:evenodd;stroke:#000000;stroke-width:4;stroke-linecap:butt;stroke-linejoin:miter;stroke-miterlimit:4;stroke-dasharray:none;stroke-opacity:1"
       inkscape:export-filename="/home/chopard/dvlpt/vplants/tissue/simulation/mass spring/description_files/spring_representation.png"
       inkscape:export-xdpi="90"
       inkscape:export-ydpi="90" />
    <path
       sodipodi:nodetypes="cccccccccccc"
       id="path3183"
       d="M 347.78325,607.13203 L 314.32088,607.13203 L 301.37205,625.37687 L 275.47438,588.8872 L 249.57672,625.37687 L 223.67906,588.8872 L 197.7814,625.37687 L 171.88373,588.8872 L 145.98607,625.37687 L 120.0884,588.8872 L 107.13957,607.13203 L 83.196455,607.13203"
       style="fill:none;fill-rule:evenodd;stroke:#000000;stroke-width:4;stroke-linecap:butt;stroke-linejoin:miter;stroke-miterlimit:4;stroke-dasharray:none;stroke-opacity:1"
       inkscape:export-filename="/home/chopard/dvlpt/vplants/tissue/simulation/mass spring/description_files/spring_representation.png"
       inkscape:export-xdpi="90"
       inkscape:export-ydpi="90" />
    <path
       style="fill:none;fill-rule:evenodd;stroke:#000000;stroke-width:4;stroke-linecap:butt;stroke-linejoin:miter;stroke-miterlimit:4;stroke-dasharray:none;stroke-opacity:1"
       d="M 633.46075,607.13203 L 610.61703,607.13203 L 597.6682,625.37687 L 571.77053,588.8872 L 545.87287,625.37687 L 519.97521,588.8872 L 494.07755,625.37687 L 468.17988,588.8872 L 442.28222,625.37687 L 416.38455,588.8872 L 403.43572,607.13203 L 372.08424,607.13203"
       id="path3185"
       sodipodi:nodetypes="cccccccccccc"
       inkscape:export-filename="/home/chopard/dvlpt/vplants/tissue/simulation/mass spring/description_files/spring_representation.png"
       inkscape:export-xdpi="90"
       inkscape:export-ydpi="90" />
    <path
       style="fill:none;fill-rule:evenodd;stroke:#000000;stroke-width:4;stroke-linecap:butt;stroke-linejoin:miter;stroke-miterlimit:4;stroke-dasharray:none;stroke-opacity:1"
       d="M 360.01865,384.66842 L 360.01865,412.83247 L 378.26348,422.35805 L 341.77381,441.4092 L 378.26348,460.46037 L 341.77381,479.51151 L 378.26348,498.56266 L 341.77381,517.61383 L 378.26348,536.66498 L 341.77381,555.71614 L 360.01865,565.24171 L 360.01865,594.70842"
       id="path3187"
       sodipodi:nodetypes="cccccccccccc"
       inkscape:export-filename="/home/chopard/dvlpt/vplants/tissue/simulation/mass spring/description_files/spring_representation.png"
       inkscape:export-xdpi="90"
       inkscape:export-ydpi="90" />
    <path
       style="fill:none;fill-rule:evenodd;stroke:#c10000;stroke-width:4;stroke-linecap:butt;stroke-linejoin:miter;stroke-miterlimit:4;stroke-dasharray:none;stroke-opacity:1"
       d="M 381.88923,467.88076 L 398.56252,461.63007 L 397.52043,441.83622 L 428.78285,462.41535 L 410.94851,431.4528 L 444.89281,446.71984 L 421.62589,419.80548 L 457.32897,427.33582 L 429.96253,405.85249 L 447.5403,404.33209 L 450.66654,393.91427"
       id="path3191"
       sodipodi:nodetypes="ccccccccccc"
       inkscape:export-filename="/home/chopard/dvlpt/vplants/tissue/simulation/mass spring/description_files/spring_representation.png"
       inkscape:export-xdpi="90"
       inkscape:export-ydpi="90" />
    <path
       sodipodi:nodetypes="ccccccccccc"
       id="path3203"
       d="M 338.88076,467.88076 L 322.20747,461.63007 L 323.24956,441.83622 L 291.98714,462.41535 L 309.82148,431.4528 L 275.87718,446.71984 L 299.1441,419.80548 L 263.44102,427.33582 L 290.80746,405.85249 L 273.22969,404.33209 L 270.10345,393.91427"
       style="fill:none;fill-rule:evenodd;stroke:#c10000;stroke-width:4;stroke-linecap:butt;stroke-linejoin:miter;stroke-miterlimit:4;stroke-dasharray:none;stroke-opacity:1"
       inkscape:export-filename="/home/chopard/dvlpt/vplants/tissue/simulation/mass spring/description_files/spring_representation.png"
       inkscape:export-xdpi="90"
       inkscape:export-ydpi="90" />
    <path
       sodipodi:nodetypes="ccccccccccc"
       id="path3205"
       d="M 381.88923,510.72871 L 398.56252,516.9794 L 397.52043,536.77325 L 428.78285,516.19412 L 410.94851,547.15667 L 444.89281,531.88963 L 421.62589,558.80399 L 457.32897,551.27365 L 429.96253,572.75698 L 447.5403,574.27738 L 450.66654,584.6952"
       style="fill:none;fill-rule:evenodd;stroke:#c10000;stroke-width:4;stroke-linecap:butt;stroke-linejoin:miter;stroke-miterlimit:4;stroke-dasharray:none;stroke-opacity:1"
       inkscape:export-filename="/home/chopard/dvlpt/vplants/tissue/simulation/mass spring/description_files/spring_representation.png"
       inkscape:export-xdpi="90"
       inkscape:export-ydpi="90" />
    <path
       style="fill:none;fill-rule:evenodd;stroke:#c10000;stroke-width:4;stroke-linecap:butt;stroke-linejoin:miter;stroke-miterlimit:4;stroke-dasharray:none;stroke-opacity:1"
       d="M 338.88076,510.72871 L 322.20747,516.9794 L 323.24956,536.77325 L 291.98714,516.19412 L 309.82148,547.15667 L 275.87718,531.88963 L 299.1441,558.80399 L 263.44102,551.27365 L 290.80746,572.75698 L 273.22969,574.27738 L 270.10345,584.6952"
       id="path3207"
       sodipodi:nodetypes="ccccccccccc"
       inkscape:export-filename="/home/chopard/dvlpt/vplants/tissue/simulation/mass spring/description_files/spring_representation.png"
       inkscape:export-xdpi="90"
       inkscape:export-ydpi="90" />
    <path
       sodipodi:type="arc"
       style="fill:#00ff00;fill-opacity:1;stroke:none;stroke-width:4;stroke-miterlimit:4;stroke-dasharray:none;stroke-dashoffset:0;stroke-opacity:1"
       id="path3209"
       sodipodi:cx="360.51797"
       sodipodi:cy="372.19467"
       sodipodi:rx="14.595869"
       sodipodi:ry="14.595869"
       d="M 375.11384,372.19467 A 14.595869,14.595869 0 1 1 345.92211,372.19467 A 14.595869,14.595869 0 1 1 375.11384,372.19467 z"
       transform="translate(-0.4993349,0.6056984)"
       inkscape:export-filename="/home/chopard/dvlpt/vplants/tissue/simulation/mass spring/description_files/spring_representation.png"
       inkscape:export-xdpi="90"
       inkscape:export-ydpi="90" />
    <path
       sodipodi:type="arc"
       style="fill:#00ff00;fill-opacity:1;stroke:none;stroke-width:4;stroke-miterlimit:4;stroke-dasharray:none;stroke-dashoffset:0;stroke-opacity:1"
       id="path3215"
       sodipodi:cx="360.51797"
       sodipodi:cy="372.19467"
       sodipodi:rx="14.595869"
       sodipodi:ry="14.595869"
       d="M 375.11384,372.19467 A 14.595869,14.595869 0 1 1 345.92211,372.19467 A 14.595869,14.595869 0 1 1 375.11384,372.19467 z"
       transform="translate(-0.4993349,234.93736)"
       inkscape:export-filename="/home/chopard/dvlpt/vplants/tissue/simulation/mass spring/description_files/spring_representation.png"
       inkscape:export-xdpi="90"
       inkscape:export-ydpi="90" />
    <path
       sodipodi:nodetypes="cc"
       id="path2397"
       d="M 79.777948,380.88719 L 79.777948,593.99575"
       style="fill:none;fill-rule:evenodd;stroke:#2627ff;stroke-width:40;stroke-linecap:butt;stroke-linejoin:miter;stroke-miterlimit:4;stroke-dasharray:none;stroke-opacity:1"
       inkscape:export-filename="/home/chopard/dvlpt/vplants/tissue/simulation/mass spring/description_files/spring_representation.png"
       inkscape:export-xdpi="90"
       inkscape:export-ydpi="90" />
    <path
       sodipodi:nodetypes="cccccccccccc"
       id="path2399"
       d="M 79.777958,384.66842 L 79.777958,412.83247 L 98.022788,422.35805 L 61.533123,441.4092 L 98.022788,460.46037 L 61.533123,479.51151 L 98.022788,498.56266 L 61.533123,517.61383 L 98.022788,536.66498 L 61.533123,555.71614 L 79.777958,565.24171 L 79.777958,594.70842"
       style="fill:none;fill-rule:evenodd;stroke:#000000;stroke-width:4;stroke-linecap:butt;stroke-linejoin:miter;stroke-miterlimit:4;stroke-dasharray:none;stroke-opacity:1"
       inkscape:export-filename="/home/chopard/dvlpt/vplants/tissue/simulation/mass spring/description_files/spring_representation.png"
       inkscape:export-xdpi="90"
       inkscape:export-ydpi="90" />
    <path
       sodipodi:nodetypes="ccccccccccc"
       id="path2401"
       d="M 101.64854,467.88076 L 118.32183,461.63007 L 117.27974,441.83622 L 148.54216,462.41535 L 130.70782,431.4528 L 164.65212,446.71984 L 141.3852,419.80548 L 177.08828,427.33582 L 149.72184,405.85249 L 167.29961,404.33209 L 170.42585,393.91427"
       style="fill:none;fill-rule:evenodd;stroke:#c10000;stroke-width:4;stroke-linecap:butt;stroke-linejoin:miter;stroke-miterlimit:4;stroke-dasharray:none;stroke-opacity:1"
       inkscape:export-filename="/home/chopard/dvlpt/vplants/tissue/simulation/mass spring/description_files/spring_representation.png"
       inkscape:export-xdpi="90"
       inkscape:export-ydpi="90" />
    <path
       style="fill:none;fill-rule:evenodd;stroke:#c10000;stroke-width:4;stroke-linecap:butt;stroke-linejoin:miter;stroke-miterlimit:4;stroke-dasharray:none;stroke-opacity:1"
       d="M 101.64854,510.72871 L 118.32183,516.9794 L 117.27974,536.77325 L 148.54216,516.19412 L 130.70782,547.15667 L 164.65212,531.88963 L 141.3852,558.80399 L 177.08828,551.27365 L 149.72184,572.75698 L 167.29961,574.27738 L 170.42585,584.6952"
       id="path2404"
       sodipodi:nodetypes="ccccccccccc"
       inkscape:export-filename="/home/chopard/dvlpt/vplants/tissue/simulation/mass spring/description_files/spring_representation.png"
       inkscape:export-xdpi="90"
       inkscape:export-ydpi="90" />
    <path
       transform="translate(-280.74003,0.6056984)"
       d="M 375.11384,372.19467 A 14.595869,14.595869 0 1 1 345.92211,372.19467 A 14.595869,14.595869 0 1 1 375.11384,372.19467 z"
       sodipodi:ry="14.595869"
       sodipodi:rx="14.595869"
       sodipodi:cy="372.19467"
       sodipodi:cx="360.51797"
       id="path2406"
       style="fill:#00ff00;fill-opacity:1;stroke:none;stroke-width:4;stroke-miterlimit:4;stroke-dasharray:none;stroke-dashoffset:0;stroke-opacity:1"
       sodipodi:type="arc"
       inkscape:export-filename="/home/chopard/dvlpt/vplants/tissue/simulation/mass spring/description_files/spring_representation.png"
       inkscape:export-xdpi="90"
       inkscape:export-ydpi="90" />
    <path
       transform="translate(-280.74003,234.93736)"
       d="M 375.11384,372.19467 A 14.595869,14.595869 0 1 1 345.92211,372.19467 A 14.595869,14.595869 0 1 1 375.11384,372.19467 z"
       sodipodi:ry="14.595869"
       sodipodi:rx="14.595869"
       sodipodi:cy="372.19467"
       sodipodi:cx="360.51797"
       id="path2408"
       style="fill:#00ff00;fill-opacity:1;stroke:none;stroke-width:4;stroke-miterlimit:4;stroke-dasharray:none;stroke-dashoffset:0;stroke-opacity:1"
       sodipodi:type="arc"
       inkscape:export-filename="/home/chopard/dvlpt/vplants/tissue/simulation/mass spring/description_files/spring_representation.png"
       inkscape:export-xdpi="90"
       inkscape:export-ydpi="90" />
    <path
       id="path2410"
       d="M 637.72426,372.80037 L 1191.5991,372.80037"
       style="fill:none;fill-rule:evenodd;stroke:#2627ff;stroke-width:40;stroke-linecap:butt;stroke-linejoin:miter;stroke-miterlimit:4;stroke-dasharray:none;stroke-opacity:1"
       inkscape:export-filename="/home/chopard/dvlpt/vplants/tissue/simulation/mass spring/description_files/spring_representation.png"
       inkscape:export-xdpi="90"
       inkscape:export-ydpi="90" />
    <path
       style="fill:none;fill-rule:evenodd;stroke:#2627ff;stroke-width:40;stroke-linecap:butt;stroke-linejoin:miter;stroke-miterlimit:4;stroke-dasharray:none;stroke-opacity:1"
       d="M 637.72426,607.13203 L 1191.5991,607.13203"
       id="path2412"
       inkscape:export-filename="/home/chopard/dvlpt/vplants/tissue/simulation/mass spring/description_files/spring_representation.png"
       inkscape:export-xdpi="90"
       inkscape:export-ydpi="90" />
    <path
       sodipodi:nodetypes="cc"
       id="path2414"
       d="M 914.66168,380.88719 L 914.66168,593.99575"
       style="fill:none;fill-rule:evenodd;stroke:#2627ff;stroke-width:40;stroke-linecap:butt;stroke-linejoin:miter;stroke-miterlimit:4;stroke-dasharray:none;stroke-opacity:1"
       inkscape:export-filename="/home/chopard/dvlpt/vplants/tissue/simulation/mass spring/description_files/spring_representation.png"
       inkscape:export-xdpi="90"
       inkscape:export-ydpi="90" />
    <path
       sodipodi:nodetypes="cccccccccccc"
       id="path2416"
       d="M 902.17934,372.80037 L 868.96392,372.80037 L 856.01509,391.0452 L 830.11742,354.55553 L 804.21976,391.0452 L 778.3221,354.55553 L 752.42444,391.0452 L 726.52677,354.55553 L 700.62911,391.0452 L 674.73144,354.55553 L 661.78261,372.80037 L 637.83949,372.80037"
       style="fill:none;fill-rule:evenodd;stroke:#000000;stroke-width:4;stroke-linecap:butt;stroke-linejoin:miter;stroke-miterlimit:4;stroke-dasharray:none;stroke-opacity:1"
       inkscape:export-filename="/home/chopard/dvlpt/vplants/tissue/simulation/mass spring/description_files/spring_representation.png"
       inkscape:export-xdpi="90"
       inkscape:export-ydpi="90" />
    <path
       sodipodi:type="arc"
       style="fill:#00ff00;fill-opacity:1;stroke:none;stroke-width:4;stroke-miterlimit:4;stroke-dasharray:none;stroke-dashoffset:0;stroke-opacity:1"
       id="path3211"
       sodipodi:cx="360.51797"
       sodipodi:cy="372.19467"
       sodipodi:rx="14.595869"
       sodipodi:ry="14.595869"
       d="M 375.11384,372.19467 A 14.595869,14.595869 0 1 1 345.92211,372.19467 A 14.595869,14.595869 0 1 1 375.11384,372.19467 z"
       transform="translate(281.84222,0.6056984)"
       inkscape:export-filename="/home/chopard/dvlpt/vplants/tissue/simulation/mass spring/description_files/spring_representation.png"
       inkscape:export-xdpi="90"
       inkscape:export-ydpi="90" />
    <path
       style="fill:none;fill-rule:evenodd;stroke:#000000;stroke-width:4;stroke-linecap:butt;stroke-linejoin:miter;stroke-miterlimit:4;stroke-dasharray:none;stroke-opacity:1"
       d="M 1188.1038,372.80037 L 1165.2601,372.80037 L 1152.3112,391.0452 L 1126.4136,354.55553 L 1100.5159,391.0452 L 1074.6182,354.55553 L 1048.7206,391.0452 L 1022.8229,354.55553 L 996.92526,391.0452 L 971.02759,354.55553 L 958.07876,372.80037 L 927.46812,372.80037"
       id="path2418"
       sodipodi:nodetypes="cccccccccccc"
       inkscape:export-filename="/home/chopard/dvlpt/vplants/tissue/simulation/mass spring/description_files/spring_representation.png"
       inkscape:export-xdpi="90"
       inkscape:export-ydpi="90" />
    <path
       style="fill:none;fill-rule:evenodd;stroke:#000000;stroke-width:4;stroke-linecap:butt;stroke-linejoin:miter;stroke-miterlimit:4;stroke-dasharray:none;stroke-opacity:1"
       d="M 902.42629,607.13203 L 868.96392,607.13203 L 856.01509,625.37687 L 830.11742,588.8872 L 804.21976,625.37687 L 778.3221,588.8872 L 752.42444,625.37687 L 726.52677,588.8872 L 700.62911,625.37687 L 674.73144,588.8872 L 661.78261,607.13203 L 637.83949,607.13203"
       id="path2420"
       sodipodi:nodetypes="cccccccccccc"
       inkscape:export-filename="/home/chopard/dvlpt/vplants/tissue/simulation/mass spring/description_files/spring_representation.png"
       inkscape:export-xdpi="90"
       inkscape:export-ydpi="90" />
    <path
       sodipodi:nodetypes="cccccccccccc"
       id="path2422"
       d="M 1188.1038,607.13203 L 1165.2601,607.13203 L 1152.3112,625.37687 L 1126.4136,588.8872 L 1100.5159,625.37687 L 1074.6182,588.8872 L 1048.7206,625.37687 L 1022.8229,588.8872 L 996.92526,625.37687 L 971.02759,588.8872 L 958.07876,607.13203 L 926.72728,607.13203"
       style="fill:none;fill-rule:evenodd;stroke:#000000;stroke-width:4;stroke-linecap:butt;stroke-linejoin:miter;stroke-miterlimit:4;stroke-dasharray:none;stroke-opacity:1"
       inkscape:export-filename="/home/chopard/dvlpt/vplants/tissue/simulation/mass spring/description_files/spring_representation.png"
       inkscape:export-xdpi="90"
       inkscape:export-ydpi="90" />
    <path
       sodipodi:nodetypes="cccccccccccc"
       id="path2424"
       d="M 914.66169,384.66842 L 914.66169,412.83247 L 932.90652,422.35805 L 896.41685,441.4092 L 932.90652,460.46037 L 896.41685,479.51151 L 932.90652,498.56266 L 896.41685,517.61383 L 932.90652,536.66498 L 896.41685,555.71614 L 914.66169,565.24171 L 914.66169,594.70842"
       style="fill:none;fill-rule:evenodd;stroke:#000000;stroke-width:4;stroke-linecap:butt;stroke-linejoin:miter;stroke-miterlimit:4;stroke-dasharray:none;stroke-opacity:1"
       inkscape:export-filename="/home/chopard/dvlpt/vplants/tissue/simulation/mass spring/description_files/spring_representation.png"
       inkscape:export-xdpi="90"
       inkscape:export-ydpi="90" />
    <path
       sodipodi:nodetypes="ccccccccccc"
       id="path2426"
       d="M 936.53227,467.88076 L 953.20556,461.63007 L 952.16347,441.83622 L 983.42589,462.41535 L 965.59155,431.4528 L 999.53585,446.71984 L 976.26893,419.80548 L 1011.972,427.33582 L 984.60557,405.85249 L 1002.1833,404.33209 L 1005.3096,393.91427"
       style="fill:none;fill-rule:evenodd;stroke:#c10000;stroke-width:4;stroke-linecap:butt;stroke-linejoin:miter;stroke-miterlimit:4;stroke-dasharray:none;stroke-opacity:1"
       inkscape:export-filename="/home/chopard/dvlpt/vplants/tissue/simulation/mass spring/description_files/spring_representation.png"
       inkscape:export-xdpi="90"
       inkscape:export-ydpi="90" />
    <path
       style="fill:none;fill-rule:evenodd;stroke:#c10000;stroke-width:4;stroke-linecap:butt;stroke-linejoin:miter;stroke-miterlimit:4;stroke-dasharray:none;stroke-opacity:1"
       d="M 893.5238,467.88076 L 876.85051,461.63007 L 877.8926,441.83622 L 846.63018,462.41535 L 864.46452,431.4528 L 830.52022,446.71984 L 853.78714,419.80548 L 818.08406,427.33582 L 845.4505,405.85249 L 827.87273,404.33209 L 824.74649,393.91427"
       id="path2428"
       sodipodi:nodetypes="ccccccccccc"
       inkscape:export-filename="/home/chopard/dvlpt/vplants/tissue/simulation/mass spring/description_files/spring_representation.png"
       inkscape:export-xdpi="90"
       inkscape:export-ydpi="90" />
    <path
       style="fill:none;fill-rule:evenodd;stroke:#c10000;stroke-width:4;stroke-linecap:butt;stroke-linejoin:miter;stroke-miterlimit:4;stroke-dasharray:none;stroke-opacity:1"
       d="M 936.53227,510.72871 L 953.20556,516.9794 L 952.16347,536.77325 L 983.42589,516.19412 L 965.59155,547.15667 L 999.53585,531.88963 L 976.26893,558.80399 L 1011.972,551.27365 L 984.60557,572.75698 L 1002.1833,574.27738 L 1005.3096,584.6952"
       id="path2430"
       sodipodi:nodetypes="ccccccccccc"
       inkscape:export-filename="/home/chopard/dvlpt/vplants/tissue/simulation/mass spring/description_files/spring_representation.png"
       inkscape:export-xdpi="90"
       inkscape:export-ydpi="90" />
    <path
       sodipodi:nodetypes="ccccccccccc"
       id="path2432"
       d="M 893.5238,510.72871 L 876.85051,516.9794 L 877.8926,536.77325 L 846.63018,516.19412 L 864.46452,547.15667 L 830.52022,531.88963 L 853.78714,558.80399 L 818.08406,551.27365 L 845.4505,572.75698 L 827.87273,574.27738 L 824.74649,584.6952"
       style="fill:none;fill-rule:evenodd;stroke:#c10000;stroke-width:4;stroke-linecap:butt;stroke-linejoin:miter;stroke-miterlimit:4;stroke-dasharray:none;stroke-opacity:1"
       inkscape:export-filename="/home/chopard/dvlpt/vplants/tissue/simulation/mass spring/description_files/spring_representation.png"
       inkscape:export-xdpi="90"
       inkscape:export-ydpi="90" />
    <path
       transform="translate(554.1437,0.6056984)"
       d="M 375.11384,372.19467 A 14.595869,14.595869 0 1 1 345.92211,372.19467 A 14.595869,14.595869 0 1 1 375.11384,372.19467 z"
       sodipodi:ry="14.595869"
       sodipodi:rx="14.595869"
       sodipodi:cy="372.19467"
       sodipodi:cx="360.51797"
       id="path2434"
       style="fill:#00ff00;fill-opacity:1;stroke:none;stroke-width:4;stroke-miterlimit:4;stroke-dasharray:none;stroke-dashoffset:0;stroke-opacity:1"
       sodipodi:type="arc"
       inkscape:export-filename="/home/chopard/dvlpt/vplants/tissue/simulation/mass spring/description_files/spring_representation.png"
       inkscape:export-xdpi="90"
       inkscape:export-ydpi="90" />
    <path
       transform="translate(554.1437,234.93736)"
       d="M 375.11384,372.19467 A 14.595869,14.595869 0 1 1 345.92211,372.19467 A 14.595869,14.595869 0 1 1 375.11384,372.19467 z"
       sodipodi:ry="14.595869"
       sodipodi:rx="14.595869"
       sodipodi:cy="372.19467"
       sodipodi:cx="360.51797"
       id="path2440"
       style="fill:#00ff00;fill-opacity:1;stroke:none;stroke-width:4;stroke-miterlimit:4;stroke-dasharray:none;stroke-dashoffset:0;stroke-opacity:1"
       sodipodi:type="arc"
       inkscape:export-filename="/home/chopard/dvlpt/vplants/tissue/simulation/mass spring/description_files/spring_representation.png"
       inkscape:export-xdpi="90"
       inkscape:export-ydpi="90" />
    <path
       sodipodi:type="arc"
       style="fill:#00ff00;fill-opacity:1;stroke:none;stroke-width:4;stroke-miterlimit:4;stroke-dasharray:none;stroke-dashoffset:0;stroke-opacity:1"
       id="path3213"
       sodipodi:cx="360.51797"
       sodipodi:cy="372.19467"
       sodipodi:rx="14.595869"
       sodipodi:ry="14.595869"
       d="M 375.11384,372.19467 A 14.595869,14.595869 0 1 1 345.92211,372.19467 A 14.595869,14.595869 0 1 1 375.11384,372.19467 z"
       transform="translate(281.84222,234.93736)"
       inkscape:export-filename="/home/chopard/dvlpt/vplants/tissue/simulation/mass spring/description_files/spring_representation.png"
       inkscape:export-xdpi="90"
       inkscape:export-ydpi="90" />
    <g
       id="g2446"
       transform="translate(21.893804,0)"
       inkscape:export-filename="/home/chopard/dvlpt/vplants/tissue/simulation/mass spring/description_files/spring_representation.png"
       inkscape:export-xdpi="90"
       inkscape:export-ydpi="90">
      <path
         sodipodi:nodetypes="ccccccccccc"
         id="path2442"
         d="M 616.88273,467.88076 L 633.55602,461.63007 L 632.51393,441.83622 L 663.77635,462.41535 L 645.94201,431.4528 L 679.88631,446.71984 L 656.61939,419.80548 L 692.32246,427.33582 L 664.95603,405.85249 L 682.53376,404.33209 L 685.66006,393.91427"
         style="fill:none;fill-rule:evenodd;stroke:#c10000;stroke-width:4;stroke-linecap:butt;stroke-linejoin:miter;stroke-miterlimit:4;stroke-dasharray:none;stroke-opacity:1" />
      <path
         style="fill:none;fill-rule:evenodd;stroke:#c10000;stroke-width:4;stroke-linecap:butt;stroke-linejoin:miter;stroke-miterlimit:4;stroke-dasharray:none;stroke-opacity:1"
         d="M 617.66187,467.88076 L 600.98858,461.63007 L 602.03067,441.83622 L 570.76825,462.41535 L 588.60259,431.4528 L 554.65829,446.71984 L 577.92521,419.80548 L 542.22213,427.33582 L 569.58857,405.85249 L 552.0108,404.33209 L 548.88456,393.91427"
         id="path2444"
         sodipodi:nodetypes="ccccccccccc" />
    </g>
    <g
       transform="matrix(1,0,0,-1,21.893804,978.56199)"
       id="g2450"
       inkscape:export-filename="/home/chopard/dvlpt/vplants/tissue/simulation/mass spring/description_files/spring_representation.png"
       inkscape:export-xdpi="90"
       inkscape:export-ydpi="90">
      <path
         style="fill:none;fill-rule:evenodd;stroke:#c10000;stroke-width:4;stroke-linecap:butt;stroke-linejoin:miter;stroke-miterlimit:4;stroke-dasharray:none;stroke-opacity:1"
         d="M 616.88273,467.88076 L 633.55602,461.63007 L 632.51393,441.83622 L 663.77635,462.41535 L 645.94201,431.4528 L 679.88631,446.71984 L 656.61939,419.80548 L 692.32246,427.33582 L 664.95603,405.85249 L 682.53376,404.33209 L 685.66006,393.91427"
         id="path2452"
         sodipodi:nodetypes="ccccccccccc" />
      <path
         sodipodi:nodetypes="ccccccccccc"
         id="path2454"
         d="M 617.66187,467.88076 L 600.98858,461.63007 L 602.03067,441.83622 L 570.76825,462.41535 L 588.60259,431.4528 L 554.65829,446.71984 L 577.92521,419.80548 L 542.22213,427.33582 L 569.58857,405.85249 L 552.0108,404.33209 L 548.88456,393.91427"
         style="fill:none;fill-rule:evenodd;stroke:#c10000;stroke-width:4;stroke-linecap:butt;stroke-linejoin:miter;stroke-miterlimit:4;stroke-dasharray:none;stroke-opacity:1" />
    </g>
    <path
       style="fill:none;fill-rule:evenodd;stroke:#2627ff;stroke-width:40;stroke-linecap:butt;stroke-linejoin:miter;stroke-miterlimit:4;stroke-dasharray:none;stroke-opacity:1"
       d="M 1193.6905,380.88719 L 1193.6905,593.99575"
       id="path2456"
       sodipodi:nodetypes="cc"
       inkscape:export-filename="/home/chopard/dvlpt/vplants/tissue/simulation/mass spring/description_files/spring_representation.png"
       inkscape:export-xdpi="90"
       inkscape:export-ydpi="90" />
    <path
       style="fill:none;fill-rule:evenodd;stroke:#000000;stroke-width:4;stroke-linecap:butt;stroke-linejoin:miter;stroke-miterlimit:4;stroke-dasharray:none;stroke-opacity:1"
       d="M 1193.6905,384.66842 L 1193.6905,412.83247 L 1175.4457,422.35805 L 1211.9354,441.4092 L 1175.4457,460.46037 L 1211.9354,479.51151 L 1175.4457,498.56266 L 1211.9354,517.61383 L 1175.4457,536.66498 L 1211.9354,555.71614 L 1193.6905,565.24171 L 1193.6905,594.70842"
       id="path2458"
       sodipodi:nodetypes="cccccccccccc"
       inkscape:export-filename="/home/chopard/dvlpt/vplants/tissue/simulation/mass spring/description_files/spring_representation.png"
       inkscape:export-xdpi="90"
       inkscape:export-ydpi="90" />
    <path
       style="fill:none;fill-rule:evenodd;stroke:#c10000;stroke-width:4;stroke-linecap:butt;stroke-linejoin:miter;stroke-miterlimit:4;stroke-dasharray:none;stroke-opacity:1"
       d="M 1171.8199,467.88076 L 1155.1466,461.63007 L 1156.1887,441.83622 L 1124.9263,462.41535 L 1142.7607,431.4528 L 1108.8164,446.71984 L 1132.0833,419.80548 L 1096.3802,427.33582 L 1123.7466,405.85249 L 1106.1689,404.33209 L 1103.0426,393.91427"
       id="path2460"
       sodipodi:nodetypes="ccccccccccc"
       inkscape:export-filename="/home/chopard/dvlpt/vplants/tissue/simulation/mass spring/description_files/spring_representation.png"
       inkscape:export-xdpi="90"
       inkscape:export-ydpi="90" />
    <path
       sodipodi:nodetypes="ccccccccccc"
       id="path2462"
       d="M 1171.8199,510.72871 L 1155.1466,516.9794 L 1156.1887,536.77325 L 1124.9263,516.19412 L 1142.7607,547.15667 L 1108.8164,531.88963 L 1132.0833,558.80399 L 1096.3802,551.27365 L 1123.7466,572.75698 L 1106.1689,574.27738 L 1103.0426,584.6952"
       style="fill:none;fill-rule:evenodd;stroke:#c10000;stroke-width:4;stroke-linecap:butt;stroke-linejoin:miter;stroke-miterlimit:4;stroke-dasharray:none;stroke-opacity:1"
       inkscape:export-filename="/home/chopard/dvlpt/vplants/tissue/simulation/mass spring/description_files/spring_representation.png"
       inkscape:export-xdpi="90"
       inkscape:export-ydpi="90" />
    <path
       sodipodi:type="arc"
       style="fill:#00ff00;fill-opacity:1;stroke:none;stroke-width:4;stroke-miterlimit:4;stroke-dasharray:none;stroke-dashoffset:0;stroke-opacity:1"
       id="path2464"
       sodipodi:cx="360.51797"
       sodipodi:cy="372.19467"
       sodipodi:rx="14.595869"
       sodipodi:ry="14.595869"
       d="M 375.11384,372.19467 A 14.595869,14.595869 0 1 1 345.92211,372.19467 A 14.595869,14.595869 0 1 1 375.11384,372.19467 z"
       transform="matrix(-1,0,0,1,1554.2085,0.6056984)"
       inkscape:export-filename="/home/chopard/dvlpt/vplants/tissue/simulation/mass spring/description_files/spring_representation.png"
       inkscape:export-xdpi="90"
       inkscape:export-ydpi="90" />
    <path
       sodipodi:type="arc"
       style="fill:#00ff00;fill-opacity:1;stroke:none;stroke-width:4;stroke-miterlimit:4;stroke-dasharray:none;stroke-dashoffset:0;stroke-opacity:1"
       id="path2466"
       sodipodi:cx="360.51797"
       sodipodi:cy="372.19467"
       sodipodi:rx="14.595869"
       sodipodi:ry="14.595869"
       d="M 375.11384,372.19467 A 14.595869,14.595869 0 1 1 345.92211,372.19467 A 14.595869,14.595869 0 1 1 375.11384,372.19467 z"
       transform="matrix(-1,0,0,1,1554.2085,234.93736)"
       inkscape:export-filename="/home/chopard/dvlpt/vplants/tissue/simulation/mass spring/description_files/spring_representation.png"
       inkscape:export-xdpi="90"
       inkscape:export-ydpi="90" />
  </g>
</svg>
